<svg width="80" height="80" viewBox="0 0 80 80" fill="none" xmlns="http://www.w3.org/2000/svg">
<circle cx="40" cy="40" r="40" fill="#651FFF"/>
<g clip-path="url(#clip0_728_542)">
<path d="M47.7928 50.2876C47.6317 50.4446 47.522 50.6448 47.4773 50.8628L46.5625 55.3259C46.4819 55.719 46.8375 56.0659 47.2409 55.9878L51.8163 55.0947C52.0393 55.051 52.2443 54.9443 52.4053 54.7871L60.4324 46.9558L55.8192 42.4552L47.7928 50.2876ZM64.3273 39.9814L62.9756 38.662C62.0749 37.7832 60.6149 37.7832 59.7142 38.662L57.2715 41.0457L61.8846 45.5464L64.3273 43.1632C65.2242 42.2814 65.2242 40.8564 64.3273 39.9814Z" fill="white"/>
<path opacity="0.4" d="M38.2923 40C42.8216 40 46.4923 36.4181 46.4923 32C46.4923 27.5819 42.8216 24 38.2923 24C33.8208 24 30.15 27.5819 30.15 32C30.15 36.4181 33.8208 40 38.2923 40ZM41.598 43H35.102C28.9719 43 24 47.8563 24 53.8375C24 55.0312 24.9942 56 26.2204 56H44.5679C44.4881 55.6543 44.4763 55.2931 44.5498 54.935L45.4646 50.4719C45.589 49.8642 45.8923 49.3119 46.341 48.8744L49.2699 46.0169C47.2739 44.15 44.5769 43 41.598 43Z" fill="white"/>
</g>
<defs>
<clipPath id="clip0_728_542">
<rect width="41" height="32" fill="white" transform="translate(24 24)"/>
</clipPath>
</defs>
</svg>
