<svg width="64" height="64" viewBox="0 0 64 64" fill="none" xmlns="http://www.w3.org/2000/svg">
<circle cx="32" cy="32" r="32" fill="#651FFF"/>
<g clip-path="url(#clip0_729_548)">
<path d="M32 23C32 22.4475 32.45 22 33 22H35C35.55 22 36 22.4475 36 23V25C36 25.55 35.55 26 35 26H33C32.45 26 32 25.55 32 25V23ZM23 30C23.55 30 24 30.45 24 31V33C24 33.55 23.55 34 23 34H21C20.4475 34 20 33.55 20 33V31C20 30.45 20.4475 30 21 30H23ZM33 38C32.45 38 32 37.55 32 37V35C32 34.45 32.45 34 33 34H35C35.55 34 36 34.45 36 35V37C36 37.55 35.55 38 35 38H33ZM23 36C23.55 36 24 36.45 24 37V39C24 39.55 23.55 40 23 40H21C20.4475 40 20 39.55 20 39V37C20 36.45 20.4475 36 21 36H23ZM40 35C40 34.45 40.45 34 41 34H43C43.55 34 44 34.45 44 35V37C44 37.55 43.55 38 43 38H41C40.45 38 40 37.55 40 37V35ZM43 22C43.55 22 44 22.4475 44 23V25C44 25.55 43.55 26 43 26H41C40.45 26 40 25.55 40 25V23C40 22.4475 40.45 22 41 22H43ZM32 29C32 28.45 32.45 28 33 28H35C35.55 28 36 28.45 36 29V31C36 31.55 35.55 32 35 32H33C32.45 32 32 31.55 32 31V29ZM41 32C40.45 32 40 31.55 40 31V29C40 28.45 40.45 28 41 28H43C43.55 28 44 28.45 44 29V31C44 31.55 43.55 32 43 32H41Z" fill="white"/>
<path opacity="0.4" d="M44 18C46.2062 18 48 19.7906 48 22V46C48 48.2062 46.2062 50 44 50H20C17.7906 50 16 48.2062 16 46V30C16 27.7937 17.7906 26 20 26H28V22C28 19.7906 29.7937 18 32 18H44ZM20 39C20 39.55 20.4475 40 21 40H23C23.55 40 24 39.55 24 39V37C24 36.45 23.55 36 23 36H21C20.4475 36 20 36.45 20 37V39ZM35 38C35.55 38 36 37.55 36 37V35C36 34.45 35.55 34 35 34H33C32.45 34 32 34.45 32 35V37C32 37.55 32.45 38 33 38H35ZM40 37C40 37.55 40.45 38 41 38H43C43.55 38 44 37.55 44 37V35C44 34.45 43.55 34 43 34H41C40.45 34 40 34.45 40 35V37ZM21 30C20.4475 30 20 30.45 20 31V33C20 33.55 20.4475 34 21 34H23C23.55 34 24 33.55 24 33V31C24 30.45 23.55 30 23 30H21ZM32 25C32 25.55 32.45 26 33 26H35C35.55 26 36 25.55 36 25V23C36 22.4475 35.55 22 35 22H33C32.45 22 32 22.4475 32 23V25ZM41 22C40.45 22 40 22.4475 40 23V25C40 25.55 40.45 26 41 26H43C43.55 26 44 25.55 44 25V23C44 22.4475 43.55 22 43 22H41ZM32 31C32 31.55 32.45 32 33 32H35C35.55 32 36 31.55 36 31V29C36 28.45 35.55 28 35 28H33C32.45 28 32 28.45 32 29V31ZM43 32C43.55 32 44 31.55 44 31V29C44 28.45 43.55 28 43 28H41C40.45 28 40 28.45 40 29V31C40 31.55 40.45 32 41 32H43Z" fill="white"/>
</g>
<defs>
<clipPath id="clip0_729_548">
<rect width="32" height="32" fill="white" transform="translate(16 18)"/>
</clipPath>
</defs>
</svg>
